<svg width="64" height="64" xmlns="http://www.w3.org/2000/svg" xmlns:xlink="http://www.w3.org/1999/xlink">
  <defs/>
  <g>
    <path stroke="none" fill="#FFFFFF" d="M24.9 24.9 L24.85 24.95 Q22 27.9 22 32 L22 32.05 Q22 36.15 24.9 39.1 27.85 42 32 42 36.15 42 39.05 39.1 L39.1 39.05 Q42 36.15 42 32 42 27.85 39.1 24.9 36.15 22 32.05 22 L32 22 Q27.9 22 24.95 24.85 L24.9 24.9 M34 32 Q34 32.85 33.4 33.4 32.85 34 32 34 31.15 34 30.55 33.4 30 32.85 30 32 30 31.15 30.55 30.55 31.15 30 32 30 32.85 30 33.4 30.55 34 31.15 34 32 M41.9 22.05 Q46 26.15 46 32 46 37.8 41.9 41.9 37.8 46 32 46 26.15 46 22.05 41.9 18 37.8 18 32 18 26.2 22.05 22.1 L22.1 22.05 Q26.2 18 32 18 37.8 18 41.9 22.05"/>
    <path stroke="none" fill="#FFFFFF" d="M50.4 13.6 Q42.8 6 32 6 21.2 6 13.6 13.6 6 21.2 6 32 6 42.8 13.6 50.4 21.2 58 32 58 42.8 58 50.4 50.4 58 42.8 58 32 58 21.2 50.4 13.6 M62 32 Q62 44.45 53.2 53.2 44.45 62 32 62 19.55 62 10.75 53.2 2 44.45 2 32 2 19.55 10.75 10.75 19.55 2 32 2 44.45 2 53.2 10.75 62 19.55 62 32"/>
    <path stroke="none" fill="#FFFFFF" d="M38 34 L38 30 64 30 64 34 38 34"/>
    <path stroke="none" fill="#FFFFFF" d="M0 34 L0 30 26 30 26 34 0 34"/>
    <path stroke="none" fill="#FFFFFF" d="M38 36 L52 50 50 52 36 38 38 36"/>
    <path stroke="none" fill="#FFFFFF" d="M26 36 L28 38 14 52 12 50 26 36"/>
  </g>
</svg>